<svg width="415" height="73" viewBox="0 0 415 73" fill="none" xmlns="http://www.w3.org/2000/svg">
<path d="M63 50.9C60.6 46.7 59 43.9 51.9 41C50.3 40.3 40.9 38.4 47 37.1C54.8 35.4 59.7 33.4 61.4 26.4C63.1 20 62.1 15.2 56.4 9.6C49.2 2.3 39.1 7.2 30.3 5.29999C23 3.6 12.7 0.899997 7.5 7.9C0.2 18.8 11.4 29 10.7 40.3C10.2 49.8 -2.83122e-07 65.1 9.3 70.6C14.6 72.7 21.5 72.7 26 69.1C29 66.5 29.5 63.3 29.2 60.3C28.6 54 24.4 47.7 29.9 44.9C31.4 44.2 33.1 43.9 34.6 44.3C40.4 45.8 42.4 54.1 41.9 59.5C41.2 66.6 43.3 71.3 50.3 72C51.5 72 52.6 72 53.9 72C63.9 70.9 67.5 58.3 63 50.9ZM38.6 29.1C31.5 31.1 24.1 27.5 27 20.4C30 13.7 38.7 17.3 43.5 19.9C47.2 21.6 51.4 22.1 49.9 26.4C48.9 29.1 44.5 27.5 38.6 29.1ZM72.9141 62.4C75.9141 64.6 78.7141 66.8 81.7141 68.8C83.9141 70.3 86.3141 71.3 88.9141 71.6C90.3141 71.8 91.5141 71.8 92.8141 71.8C96.8141 71.9 100.714 72 104.514 72C105.614 72 106.814 71.9 107.814 71.5C111.514 70 114.914 68.2 117.614 65.4C118.914 63.9 120.414 62.6 121.814 61.1C124.314 58.4 125.214 54.9 125.114 51.1C124.914 47.7 121.614 44.8 117.714 44.6C113.914 44.5 110.514 45.7 107.414 48.1C106.114 48.9 105.214 50.3 104.714 51.7C104.514 52.7 104.214 53.7 104.014 54.8C103.714 55.7 103.614 56.8 103.414 57.6C102.614 60.2 100.214 61.8 97.7141 61.3C95.0141 60.8 93.2141 59.2 92.2141 56.5C91.4141 54.1 92.3141 51.9 94.2141 50.3C96.4141 48.1 99.1141 46.5 102.014 45.7C104.814 45 107.714 44.3 110.514 43.8C116.014 42.9 120.314 40.2 123.114 35.5C123.514 34.7 124.214 33.8 124.514 33C125.014 31.8 125.514 30.5 125.714 29.2C126.114 26.2 125.614 23.4 124.114 20.8C122.714 18.5 120.414 17.6 118.114 16.8C116.514 16.3 114.914 15.7 113.614 15C109.514 12.8 105.714 10.8 101.814 8.6C100.014 7.4 98.0141 6.69999 95.8141 6.69999C90.6141 6.8 86.3141 8.7 83.6141 13.1C82.2141 15.2 80.9141 17.5 79.9141 20C77.9141 25.3 75.4141 30.2 71.0141 34.1C68.4141 36.5 66.8141 39.6 66.2141 43.2C65.7141 46.6 65.9141 50 66.9141 53.5C68.0141 57.1 69.9141 60.2 72.9141 62.4ZM84.6141 39.4C84.9141 37.3 86.0141 35.7 87.6141 34.3C88.7141 33.6 89.9141 32.9 91.1141 32.4C94.2141 31.4 96.6141 29.5 98.9141 27.3C100.314 26 101.414 24.6 102.914 23.4C105.014 21.6 107.314 20.5 110.114 21C112.714 21.3 114.414 23.2 114.314 25.7C114.414 27.3 113.714 28.4 112.414 29.4C110.914 30.8 109.014 31.6 107.114 31.9C103.214 32.5 100.714 34.7 98.1141 37.4C96.0141 39.6 93.7141 41.6 90.9141 43C89.9141 43.5 89.0141 43.8 87.9141 43.6C85.7141 43.2 84.5141 41.6 84.6141 39.4ZM136.005 69.1C138.905 71.2 142.205 72.7 146.005 71.5C147.105 71.2 148.105 70.6 149.105 70C150.805 69.1 152.405 68 154.105 67.1C155.705 66.3 157.405 65.8 159.305 66.2C162.005 66.7 164.605 67.7 166.805 69.3C171.005 72.3 175.405 72.5 180.005 70.9C183.905 69.6 186.505 66.9 187.505 63.1C188.205 60.7 188.505 58.3 188.905 55.9C188.705 53.4 188.405 51.7 187.405 50.2C184.405 45 178.705 44.4 175.005 46.5C173.005 47.7 171.205 49.3 169.305 50.7C165.405 53.6 161.205 55.1 156.405 54C154.805 53.6 153.205 52.9 151.705 52.2C147.605 49.8 145.105 46.4 144.505 41.8C143.805 36.6 144.405 31.6 146.405 26.8C147.405 24.3 148.105 21.8 148.905 19.2C149.505 16.7 149.505 14.2 149.105 11.7C148.705 10 147.905 8.7 146.305 7.9C143.805 6.4 141.105 6.3 138.205 6.6C132.805 7.1 130.005 11.5 129.005 14.9C128.905 15.7 128.805 16.4 128.905 17.2C129.405 22.3 130.405 27.2 132.105 32C133.305 35 133.705 38.1 133.605 41.2C133.505 42.7 133.305 44.1 132.805 45.5C132.005 47.5 131.005 49.4 130.205 51.3C129.305 53.6 128.805 55.8 129.205 58.2C130.205 62.7 132.305 66.4 136.005 69.1ZM202.191 10.7C199.991 15.1 201.691 18.5 205.891 20C207.291 20.6 208.891 20.8 210.291 21.1C213.791 20.9 216.491 20 219.091 18.1C220.691 17 221.291 15.3 221.091 13.5C220.891 11.3 219.791 9.5 217.591 8.6C215.691 7.8 213.791 7.1 211.791 6.6C207.691 5.7 203.991 7.1 202.191 10.7ZM194.091 28.4C192.791 32.5 193.391 36.3 196.191 40C197.291 41.4 198.591 43 199.791 44.8C201.391 47.3 201.891 50 200.791 52.8C200.091 54.4 199.491 56 198.991 57.5C198.691 58.3 198.591 59.1 198.591 59.9C198.191 63.9 200.291 66.9 203.491 69.2C206.391 71.4 209.891 71.8 214.091 72C214.791 71.9 216.091 71.9 217.391 71.5C219.891 70.9 221.991 69.8 223.391 67.8C226.491 63.3 224.891 57.5 219.691 54.9C217.991 54.1 217.191 52.7 216.991 50.8C216.691 47.8 217.691 45.2 219.591 42.7C221.091 40.7 222.491 38.7 223.791 36.6C224.891 34.8 225.691 32.9 225.791 30.9C225.891 28.1 225.091 25.7 222.591 24.2C220.291 22.9 217.891 22.9 215.491 24C214.791 24.4 214.191 24.6 213.391 24.9C211.391 25.5 209.391 25.6 207.391 24.7C206.091 24.2 204.791 23.8 203.391 23.3C200.691 22.2 198.191 22.8 196.291 24.8C195.391 25.9 194.591 27.1 194.091 28.4ZM233.328 37.3C235.928 39.4 238.728 41.2 241.928 42.3C245.028 43.4 248.128 44.1 251.228 44.8C253.528 45.3 255.628 46.2 257.528 47.5C258.828 48.3 259.328 49.4 259.028 50.9C258.528 53.6 258.228 56.4 257.428 59.2C256.628 61.8 256.928 64.4 257.728 66.8C258.628 69.4 260.528 71.5 263.628 71.8C265.628 72 267.528 71.9 269.328 72C272.028 72.2 274.228 71.1 276.228 69.6C276.728 69.2 277.128 68.7 277.328 68.2C278.228 65.9 279.128 63.5 278.828 61C278.528 58.4 277.928 55.9 277.528 53.3C277.328 52.3 277.228 51.3 277.128 50.3C276.828 46.4 277.928 42.7 279.128 39.1C279.728 37.3 280.728 35.6 281.628 33.8C283.528 30.6 285.528 27.6 286.928 24C288.928 19.1 287.528 14.8 283.928 11.3C281.028 8.3 277.028 7.2 272.828 6.5H272.028C269.528 6.9 266.928 7.2 264.328 7.8C259.428 8.9 254.628 9.89999 249.628 9.2C248.828 9.1 248.028 9.1 247.228 9.1C244.828 8.9 242.428 9.1 240.128 9.8C235.928 10.9 233.028 13.7 230.328 16.8C228.428 19.1 227.628 21.6 227.728 24.4C227.928 28.7 229.728 32.4 232.128 36C232.428 36.5 232.828 36.9 233.328 37.3ZM242.628 25.6C245.228 25.3 247.628 25.1 249.928 24.9C254.528 25.2 258.828 25.8 262.828 27.6C264.928 28.5 266.328 30.1 267.428 31.8C268.428 33.4 268.828 35.3 269.028 37.2C269.128 38.7 268.728 39.2 267.228 39.2C265.928 39.2 264.428 39.1 263.228 38.7C261.328 38 259.328 37.2 257.628 36C254.128 33.5 250.228 32.2 246.028 31.9C244.328 31.8 242.828 31.3 241.628 30.2C241.128 29.8 240.628 29 240.528 28.4C240.128 26.9 241.028 25.8 242.628 25.6ZM347.416 54.5C346.116 52.4 344.916 50.3 344.316 47.9C343.416 43.7 343.516 38.7 345.316 34.7C346.216 32.6 347.716 30.8 348.716 28.7C350.716 24.5 351.016 20.3 349.416 15.9C347.516 10.6 342.116 5.79999 336.116 7.5C334.116 8.09999 332.316 9.5 330.916 11C328.716 13.5 327.016 16.3 326.516 19.6C326.116 21.8 326.016 24.2 326.516 26.4C327.016 28.9 327.716 31.4 328.616 34C329.916 37.7 331.016 41.5 331.116 44.7C331.116 49.3 330.316 51.8 328.616 54.4C326.416 57.7 322.116 59.5 318.416 58.1C315.316 57.1 312.716 55.2 311.616 52.1C310.616 49.4 309.916 46.7 309.516 44C308.916 38.9 309.416 34 311.616 29.3C312.016 28.4 312.516 27.4 312.816 26.5C313.416 24.8 314.216 23.3 314.616 21.7C315.316 18.9 315.216 16.2 313.716 13.7C312.316 11.3 310.716 9.3 308.216 8C301.516 4.3 292.916 8.2 291.616 15.9C290.916 20.5 292.216 24.5 294.616 28.3C295.816 30.3 297.116 32.3 298.316 34.4C300.116 37.4 300.016 40.5 298.616 43.7C297.816 45.5 296.816 47.2 295.716 48.9C293.916 51.9 292.216 54.9 291.316 58.3C289.916 63.4 292.316 68.4 297.316 70.5C299.316 71.4 301.416 71.7 303.616 71.9C307.616 72.1 311.116 71 314.716 69.6C317.416 68.6 320.316 68.4 323.216 68.3C325.716 68.2 328.016 68.9 330.216 69.9C332.816 71.1 335.416 71.5 338.116 71.6C341.616 71.7 345.216 70.4 347.716 67.9C350.616 64.9 351.816 60.8 349.316 57.2C348.716 56.3 348.016 55.5 347.416 54.5ZM360.805 62.4C363.805 64.6 366.605 66.8 369.605 68.8C371.805 70.3 374.205 71.3 376.805 71.6C378.205 71.8 379.405 71.8 380.705 71.8C384.705 71.9 388.605 72 392.405 72C393.505 72 394.705 71.9 395.705 71.5C399.405 70 402.805 68.2 405.505 65.4C406.805 63.9 408.305 62.6 409.705 61.1C412.205 58.4 413.105 54.9 413.005 51.1C412.805 47.7 409.505 44.8 405.605 44.6C401.805 44.5 398.405 45.7 395.305 48.1C394.005 48.9 393.105 50.3 392.605 51.7C392.405 52.7 392.105 53.7 391.905 54.8C391.605 55.7 391.505 56.8 391.305 57.6C390.505 60.2 388.105 61.8 385.605 61.3C382.905 60.8 381.105 59.2 380.105 56.5C379.305 54.1 380.205 51.9 382.105 50.3C384.305 48.1 387.005 46.5 389.905 45.7C392.705 45 395.605 44.3 398.405 43.8C403.905 42.9 408.205 40.2 411.005 35.5C411.405 34.7 412.105 33.8 412.405 33C412.905 31.8 413.405 30.5 413.605 29.2C414.005 26.2 413.505 23.4 412.005 20.8C410.605 18.5 408.305 17.6 406.005 16.8C404.405 16.3 402.805 15.7 401.505 15C397.405 12.8 393.605 10.8 389.705 8.6C387.905 7.4 385.905 6.69999 383.705 6.69999C378.505 6.8 374.205 8.7 371.505 13.1C370.105 15.2 368.805 17.5 367.805 20C365.805 25.3 363.305 30.2 358.905 34.1C356.305 36.5 354.705 39.6 354.105 43.2C353.605 46.6 353.805 50 354.805 53.5C355.905 57.1 357.805 60.2 360.805 62.4ZM372.505 39.4C372.805 37.3 373.905 35.7 375.505 34.3C376.605 33.6 377.805 32.9 379.005 32.4C382.105 31.4 384.505 29.5 386.805 27.3C388.205 26 389.305 24.6 390.805 23.4C392.905 21.6 395.205 20.5 398.005 21C400.605 21.3 402.305 23.2 402.205 25.7C402.305 27.3 401.605 28.4 400.305 29.4C398.805 30.8 396.905 31.6 395.005 31.9C391.105 32.5 388.605 34.7 386.005 37.4C383.905 39.6 381.605 41.6 378.805 43C377.805 43.5 376.905 43.8 375.805 43.6C373.605 43.2 372.405 41.6 372.505 39.4Z" fill="#703511"/>
</svg>
