<svg width="415" height="73" viewBox="0 0 415 73" fill="none" xmlns="http://www.w3.org/2000/svg">
<path d="M63 50.9C67.5 58.3 63.9 70.9 53.9 72C52.6 72 51.5 72 50.3 72C43.3 71.3 41.2 66.6 41.9 59.5C42.4 54.1 40.4 45.8 34.6 44.3C33.1 43.9 31.4 44.2 29.9 44.9C24.4 47.7 28.6 54 29.2 60.3C29.5 63.3 29 66.5 26 69.1C21.5 72.7 14.6 72.7 9.3 70.6C-2.83122e-07 65.1 10.2 49.8 10.7 40.3C11.4 29 0.2 18.8 7.5 7.9C12.7 0.899997 23 3.6 30.3 5.29999C39.1 7.2 49.2 2.3 56.4 9.6C62.1 15.2 63.1 20 61.4 26.4C59.7 33.4 54.8 35.4 47 37.1C40.9 38.4 50.3 40.3 51.9 41C59 43.9 60.6 46.7 63 50.9ZM38.6 29.1C44.5 27.5 48.9 29.1 49.9 26.4C51.4 22.1 47.2 21.6 43.5 19.9C38.7 17.3 30 13.7 27 20.4C24.1 27.5 31.5 31.1 38.6 29.1ZM72.9141 62.4C69.9141 60.2 68.0141 57.1 66.9141 53.5C65.9141 50 65.7141 46.6 66.2141 43.2C66.8141 39.6 68.4141 36.5 71.0141 34.1C75.4141 30.2 77.9141 25.3 79.9141 20C80.9141 17.5 82.2141 15.2 83.6141 13.1C86.3141 8.7 90.6141 6.8 95.8141 6.69999C98.0141 6.69999 100.014 7.4 101.814 8.6C105.714 10.8 109.514 12.8 113.614 15C114.914 15.7 116.514 16.3 118.114 16.8C120.414 17.6 122.714 18.5 124.114 20.8C125.614 23.4 126.114 26.2 125.714 29.2C125.514 30.5 125.014 31.8 124.514 33C124.214 33.8 123.514 34.7 123.114 35.5C120.314 40.2 116.014 42.9 110.514 43.8C107.714 44.3 104.814 45 102.014 45.7C99.1141 46.5 96.4141 48.1 94.2141 50.3C92.3141 51.9 91.4141 54.1 92.2141 56.5C93.2141 59.2 95.0141 60.8 97.7141 61.3C100.214 61.8 102.614 60.2 103.414 57.6C103.614 56.8 103.714 55.7 104.014 54.8C104.214 53.7 104.514 52.7 104.714 51.7C105.214 50.3 106.114 48.9 107.414 48.1C110.514 45.7 113.914 44.5 117.714 44.6C121.614 44.8 124.914 47.7 125.114 51.1C125.214 54.9 124.314 58.4 121.814 61.1C120.414 62.6 118.914 63.9 117.614 65.4C114.914 68.2 111.514 70 107.814 71.5C106.814 71.9 105.614 72 104.514 72C100.714 72 96.8141 71.9 92.8141 71.8C91.5141 71.8 90.3141 71.8 88.9141 71.6C86.3141 71.3 83.9141 70.3 81.7141 68.8C78.7141 66.8 75.9141 64.6 72.9141 62.4ZM84.6141 39.4C84.5141 41.6 85.7141 43.2 87.9141 43.6C89.0141 43.8 89.9141 43.5 90.9141 43C93.7141 41.6 96.0141 39.6 98.1141 37.4C100.714 34.7 103.214 32.5 107.114 31.9C109.014 31.6 110.914 30.8 112.414 29.4C113.714 28.4 114.414 27.3 114.314 25.7C114.414 23.2 112.714 21.3 110.114 21C107.314 20.5 105.014 21.6 102.914 23.4C101.414 24.6 100.314 26 98.9141 27.3C96.6141 29.5 94.2141 31.4 91.1141 32.4C89.9141 32.9 88.7141 33.6 87.6141 34.3C86.0141 35.7 84.9141 37.3 84.6141 39.4ZM136.005 69.1C132.305 66.4 130.205 62.7 129.205 58.2C128.805 55.8 129.305 53.6 130.205 51.3C131.005 49.4 132.005 47.5 132.805 45.5C133.305 44.1 133.505 42.7 133.605 41.2C133.705 38.1 133.305 35 132.105 32C130.405 27.2 129.405 22.3 128.905 17.2C128.805 16.4 128.905 15.7 129.005 14.9C130.005 11.5 132.805 7.1 138.205 6.6C141.105 6.3 143.805 6.4 146.305 7.9C147.905 8.7 148.705 10 149.105 11.7C149.505 14.2 149.505 16.7 148.905 19.2C148.105 21.8 147.405 24.3 146.405 26.8C144.405 31.6 143.805 36.6 144.505 41.8C145.105 46.4 147.605 49.8 151.705 52.2C153.205 52.9 154.805 53.6 156.405 54C161.205 55.1 165.405 53.6 169.305 50.7C171.205 49.3 173.005 47.7 175.005 46.5C178.705 44.4 184.405 45 187.405 50.2C188.405 51.7 188.705 53.4 188.905 55.9C188.505 58.3 188.205 60.7 187.505 63.1C186.505 66.9 183.905 69.6 180.005 70.9C175.405 72.5 171.005 72.3 166.805 69.3C164.605 67.7 162.005 66.7 159.305 66.2C157.405 65.8 155.705 66.3 154.105 67.1C152.405 68 150.805 69.1 149.105 70C148.105 70.6 147.105 71.2 146.005 71.5C142.205 72.7 138.905 71.2 136.005 69.1ZM202.191 10.7C203.991 7.1 207.691 5.7 211.791 6.6C213.791 7.1 215.691 7.8 217.591 8.6C219.791 9.5 220.891 11.3 221.091 13.5C221.291 15.3 220.691 17 219.091 18.1C216.491 20 213.791 20.9 210.291 21.1C208.891 20.8 207.291 20.6 205.891 20C201.691 18.5 199.991 15.1 202.191 10.7ZM194.091 28.4C194.591 27.1 195.391 25.9 196.291 24.8C198.191 22.8 200.691 22.2 203.391 23.3C204.791 23.8 206.091 24.2 207.391 24.7C209.391 25.6 211.391 25.5 213.391 24.9C214.191 24.6 214.791 24.4 215.491 24C217.891 22.9 220.291 22.9 222.591 24.2C225.091 25.7 225.891 28.1 225.791 30.9C225.691 32.9 224.891 34.8 223.791 36.6C222.491 38.7 221.091 40.7 219.591 42.7C217.691 45.2 216.691 47.8 216.991 50.8C217.191 52.7 217.991 54.1 219.691 54.9C224.891 57.5 226.491 63.3 223.391 67.8C221.991 69.8 219.891 70.9 217.391 71.5C216.091 71.9 214.791 71.9 214.091 72C209.891 71.8 206.391 71.4 203.491 69.2C200.291 66.9 198.191 63.9 198.591 59.9C198.591 59.1 198.691 58.3 198.991 57.5C199.491 56 200.091 54.4 200.791 52.8C201.891 50 201.391 47.3 199.791 44.8C198.591 43 197.291 41.4 196.191 40C193.391 36.3 192.791 32.5 194.091 28.4ZM233.328 37.3C232.828 36.9 232.428 36.5 232.128 36C229.728 32.4 227.928 28.7 227.728 24.4C227.628 21.6 228.428 19.1 230.328 16.8C233.028 13.7 235.928 10.9 240.128 9.8C242.428 9.1 244.828 8.9 247.228 9.1C248.028 9.1 248.828 9.1 249.628 9.2C254.628 9.89999 259.428 8.9 264.328 7.8C266.928 7.2 269.528 6.9 272.028 6.5H272.828C277.028 7.2 281.028 8.3 283.928 11.3C287.528 14.8 288.928 19.1 286.928 24C285.528 27.6 283.528 30.6 281.628 33.8C280.728 35.6 279.728 37.3 279.128 39.1C277.928 42.7 276.828 46.4 277.128 50.3C277.228 51.3 277.328 52.3 277.528 53.3C277.928 55.9 278.528 58.4 278.828 61C279.128 63.5 278.228 65.9 277.328 68.2C277.128 68.7 276.728 69.2 276.228 69.6C274.228 71.1 272.028 72.2 269.328 72C267.528 71.9 265.628 72 263.628 71.8C260.528 71.5 258.628 69.4 257.728 66.8C256.928 64.4 256.628 61.8 257.428 59.2C258.228 56.4 258.528 53.6 259.028 50.9C259.328 49.4 258.828 48.3 257.528 47.5C255.628 46.2 253.528 45.3 251.228 44.8C248.128 44.1 245.028 43.4 241.928 42.3C238.728 41.2 235.928 39.4 233.328 37.3ZM242.628 25.6C241.028 25.8 240.128 26.9 240.528 28.4C240.628 29 241.128 29.8 241.628 30.2C242.828 31.3 244.328 31.8 246.028 31.9C250.228 32.2 254.128 33.5 257.628 36C259.328 37.2 261.328 38 263.228 38.7C264.428 39.1 265.928 39.2 267.228 39.2C268.728 39.2 269.128 38.7 269.028 37.2C268.828 35.3 268.428 33.4 267.428 31.8C266.328 30.1 264.928 28.5 262.828 27.6C258.828 25.8 254.528 25.2 249.928 24.9C247.628 25.1 245.228 25.3 242.628 25.6ZM347.416 54.5C348.016 55.5 348.716 56.3 349.316 57.2C351.816 60.8 350.616 64.9 347.716 67.9C345.216 70.4 341.616 71.7 338.116 71.6C335.416 71.5 332.816 71.1 330.216 69.9C328.016 68.9 325.716 68.2 323.216 68.3C320.316 68.4 317.416 68.6 314.716 69.6C311.116 71 307.616 72.1 303.616 71.9C301.416 71.7 299.316 71.4 297.316 70.5C292.316 68.4 289.916 63.4 291.316 58.3C292.216 54.9 293.916 51.9 295.716 48.9C296.816 47.2 297.816 45.5 298.616 43.7C300.016 40.5 300.116 37.4 298.316 34.4C297.116 32.3 295.816 30.3 294.616 28.3C292.216 24.5 290.916 20.5 291.616 15.9C292.916 8.2 301.516 4.3 308.216 8C310.716 9.3 312.316 11.3 313.716 13.7C315.216 16.2 315.316 18.9 314.616 21.7C314.216 23.3 313.416 24.8 312.816 26.5C312.516 27.4 312.016 28.4 311.616 29.3C309.416 34 308.916 38.9 309.516 44C309.916 46.7 310.616 49.4 311.616 52.1C312.716 55.2 315.316 57.1 318.416 58.1C322.116 59.5 326.416 57.7 328.616 54.4C330.316 51.8 331.116 49.3 331.116 44.7C331.016 41.5 329.916 37.7 328.616 34C327.716 31.4 327.016 28.9 326.516 26.4C326.016 24.2 326.116 21.8 326.516 19.6C327.016 16.3 328.716 13.5 330.916 11C332.316 9.5 334.116 8.09999 336.116 7.5C342.116 5.79999 347.516 10.6 349.416 15.9C351.016 20.3 350.716 24.5 348.716 28.7C347.716 30.8 346.216 32.6 345.316 34.7C343.516 38.7 343.416 43.7 344.316 47.9C344.916 50.3 346.116 52.4 347.416 54.5ZM360.805 62.4C357.805 60.2 355.905 57.1 354.805 53.5C353.805 50 353.605 46.6 354.105 43.2C354.705 39.6 356.305 36.5 358.905 34.1C363.305 30.2 365.805 25.3 367.805 20C368.805 17.5 370.105 15.2 371.505 13.1C374.205 8.7 378.505 6.8 383.705 6.69999C385.905 6.69999 387.905 7.4 389.705 8.6C393.605 10.8 397.405 12.8 401.505 15C402.805 15.7 404.405 16.3 406.005 16.8C408.305 17.6 410.605 18.5 412.005 20.8C413.505 23.4 414.005 26.2 413.605 29.2C413.405 30.5 412.905 31.8 412.405 33C412.105 33.8 411.405 34.7 411.005 35.5C408.205 40.2 403.905 42.9 398.405 43.8C395.605 44.3 392.705 45 389.905 45.7C387.005 46.5 384.305 48.1 382.105 50.3C380.205 51.9 379.305 54.1 380.105 56.5C381.105 59.2 382.905 60.8 385.605 61.3C388.105 61.8 390.505 60.2 391.305 57.6C391.505 56.8 391.605 55.7 391.905 54.8C392.105 53.7 392.405 52.7 392.605 51.7C393.105 50.3 394.005 48.9 395.305 48.1C398.405 45.7 401.805 44.5 405.605 44.6C409.505 44.8 412.805 47.7 413.005 51.1C413.105 54.9 412.205 58.4 409.705 61.1C408.305 62.6 406.805 63.9 405.505 65.4C402.805 68.2 399.405 70 395.705 71.5C394.705 71.9 393.505 72 392.405 72C388.605 72 384.705 71.9 380.705 71.8C379.405 71.8 378.205 71.8 376.805 71.6C374.205 71.3 371.805 70.3 369.605 68.8C366.605 66.8 363.805 64.6 360.805 62.4ZM372.505 39.4C372.405 41.6 373.605 43.2 375.805 43.6C376.905 43.8 377.805 43.5 378.805 43C381.605 41.6 383.905 39.6 386.005 37.4C388.605 34.7 391.105 32.5 395.005 31.9C396.905 31.6 398.805 30.8 400.305 29.4C401.605 28.4 402.305 27.3 402.205 25.7C402.305 23.2 400.605 21.3 398.005 21C395.205 20.5 392.905 21.6 390.805 23.4C389.305 24.6 388.205 26 386.805 27.3C384.505 29.5 382.105 31.4 379.005 32.4C377.805 32.9 376.605 33.6 375.505 34.3C373.905 35.7 372.805 37.3 372.505 39.4Z" fill="white"/>
</svg>
